# xmcd
#
# Track frame offsets: 
#        182
#        21835
#        34770
#        48167
#        59482
#        74305
#        87662
#        102430
#        124332
#        141537
#        156685
#        168747
#        179627
#        197685
#
# Disc length: 2726 seconds
#
# Revision: 2
# Processed by: cddbd v1.5.1PL0 Copyright (c) Steve Scherf et al.
# Submitted via: ExactAudioCopy v0.90b4
#
DISCID=dd0aa40e
DTITLE=Raul Seixas - Os Grandes Sucessos De
DYEAR=1993
DGENRE=Rock
TTITLE0=Eu Nasci Há 10 Mil Anos Atrás
TTITLE1=Ouro De Tolo
TTITLE2=Medo Da Chuva
TTITLE3=Loteria Da Babilônia
TTITLE4=Como Vovó Já Dizia (Óculos Escuros)
TTITLE5=As Minas Do Rei Salomão
TTITLE6=Let Me Sing, Let Me Sing
TTITLE7=Gîtâ
TTITLE8=Metamorfose Ambulante
TTITLE9=Eu Também Vou Reclamar
TTITLE10=Al Capone
TTITLE11=Tente Outra Vez
TTITLE12=Mosca Na Sopa
TTITLE13=Dentadura Postiça
EXTD=
EXTT0=
EXTT1=
EXTT2=
EXTT3=
EXTT4=
EXTT5=
EXTT6=
EXTT7=
EXTT8=
EXTT9=
EXTT10=
EXTT11=
EXTT12=
EXTT13=
PLAYORDER=
